<?xml version="1.0" encoding="UTF-8"?>
<!DOCTYPE svg PUBLIC "-//W3C//DTD SVG 1.1//EN" "http://www.w3.org/Graphics/SVG/1.1/DTD/svg11.dtd">
<!-- Creator: CorelDRAW 2021 (64-Bit) -->
<svg xmlns="http://www.w3.org/2000/svg" xml:space="preserve" width="1in" height="1in" version="1.1" style="shape-rendering:geometricPrecision; text-rendering:geometricPrecision; image-rendering:optimizeQuality; fill-rule:evenodd; clip-rule:evenodd"
viewBox="0 0 1000 1000"
 xmlns:xlink="http://www.w3.org/1999/xlink"
 xmlns:xodm="http://www.corel.com/coreldraw/odm/2003">
 <defs>
  <style type="text/css">
   <![CDATA[
    .fil0 {fill:white;fill-rule:nonzero}
   ]]>
  </style>
 </defs>
 <g id="Layer_x0020_1">
  <metadata id="CorelCorpID_0Corel-Layer"/>
  <path class="fil0" d="M473.04 732.09l0 -5.86c0,-13 12.22,-24.61 28.13,-24.61 12.77,0 25.79,11.82 25.79,24.61l0 5.86c0,13.19 -13.54,24.61 -26.96,24.61 -13.43,0 -26.96,-11.43 -26.96,-24.61zm-110.19 -458.33l274.29 0 0 386.82 -274.29 0 0 -386.82zm75.02 -46.89l124.25 0c7.6,0 7.5,19.93 0,19.93l-124.25 0c-7.19,0 -7.19,-19.93 0,-19.93zm-107.84 12.9l0 519.28c0,20.98 20.05,41.03 41.03,41.03l257.88 0c20.82,0 41.02,-20.21 41.02,-41.03l0 -519.28c0,-3.95 -2.71,-12.73 -4.27,-15.66 -6.78,-12.8 -20.3,-24.2 -36.76,-24.2l-257.88 0c-21.79,0 -41.03,21.38 -41.03,39.86z"/>
 </g>
</svg>
