<?xml version="1.0" encoding="UTF-8"?>
<!DOCTYPE svg PUBLIC "-//W3C//DTD SVG 1.1//EN" "http://www.w3.org/Graphics/SVG/1.1/DTD/svg11.dtd">
<!-- Creator: CorelDRAW 2021 (64-Bit) -->
<svg xmlns="http://www.w3.org/2000/svg" xml:space="preserve" width="0.631315in" height="0.600165in" version="1.1" style="shape-rendering:geometricPrecision; text-rendering:geometricPrecision; image-rendering:optimizeQuality; fill-rule:evenodd; clip-rule:evenodd"
viewBox="0 0 631.31 600.17"
 xmlns:xlink="http://www.w3.org/1999/xlink"
 xmlns:xodm="http://www.corel.com/coreldraw/odm/2003">
 <defs>
  <style type="text/css">
   <![CDATA[
    .fil0 {fill:#FCFEFE}
    .fil1 {fill:white;fill-rule:nonzero}
   ]]>
  </style>
 </defs>
 <g id="Layer_x0020_1">
  <metadata id="CorelCorpID_0Corel-Layer"/>
  <g id="_1282041896816">
   <path class="fil0" d="M566.86 311.87c6.15,-7.78 23.96,-4.2 26.02,-17.57 0.82,-5.31 -5.89,-27.46 -7.78,-34.09 -6.27,-22.1 -19.2,-15.2 -23.09,-10.61 -6.71,7.93 1.22,23.64 3.01,33.68 -13.43,10.68 -27.28,8.76 -24.58,44.28 -10.07,1.61 -28.06,4.89 -31.04,12.43 -12.64,31.94 50.68,8.61 54.48,5.31 10.51,-9.14 -4.36,-24.14 2.99,-33.44z"/>
   <path class="fil0" d="M496.27 164.76c5.5,5.69 2.1,9.32 14.24,18.87 9.26,7.29 15.97,6.12 29.17,6.11 5.29,9.3 3.78,24.42 12,29.78 5.08,3.32 11.44,2.52 15.42,-1.22 5.17,-4.87 3.91,-10.86 2.07,-17.77 -1.78,-6.66 -6.81,-28.3 -9.47,-32.5 -7.02,-11.07 -22,-2.07 -34.56,-3.67 -2.39,-3.68 -4.65,-8.26 -6.49,-14.1 -6.09,-19.24 -11.71,-14.55 -43.74,-5.9 -5.58,1.51 -11.13,2.03 -14.35,6.56 -3.59,5.04 -3.01,12.95 1.48,16.81 7.77,6.69 24.31,-0.74 34.25,-2.98z"/>
   <path class="fil0" d="M536.71 124.39c18.46,-3.58 16.73,5.48 24.4,32.43 4.44,15.58 8.43,30.89 12.44,46.36 9.47,36.54 22.7,80.44 30.8,114.87 2.24,9.51 4.34,16.83 -3.12,21.2 -7.64,4.48 -121.94,33.9 -136.97,38.11 -61.06,17.11 -123.29,32.62 -184.44,49.31 -31.28,8.53 -61.66,16.57 -92.8,24.93 -117.02,31.39 -104.35,38.33 -116.91,-8.22l-37.02 -138.04c-4.62,-17.42 -13.77,-37.68 -2.86,-44.2 9,-5.38 122.13,-34.22 136.96,-38.09 92.38,-24.06 185.21,-50.59 277.19,-74.21 29.7,-7.63 62.39,-18.62 92.34,-24.44zm-536.04 154.7c1.85,12.7 34.46,130.81 40.65,153.89 3.74,13.98 8.79,37.69 15.04,49.35 18.13,33.79 54.25,15.51 94.83,4.85l305.96 -82c33.89,-9.2 67.5,-17.96 101.58,-27.26 38.64,-10.54 78.5,-12.54 71.85,-56.68 -2,-13.29 -34.46,-130.3 -40.72,-154 -9.48,-35.87 -12.52,-76.58 -58.54,-67.44 -30.39,6.04 -116.99,31.37 -152.71,40.62l-305.9 81.98c-36.2,9.72 -78.55,12 -72.04,56.69z"/>
   <path class="fil0" d="M139.35 334.66c16.51,-4.84 20.95,20.18 6.33,23.91 -16.07,4.1 -22.25,-19.25 -6.33,-23.91zm-33.61 20.04c3.69,17.8 22.29,33.62 45.17,28.52 47.24,-10.53 32.74,-83.21 -16.09,-73.45 -18.13,3.63 -33.86,21.88 -29.08,44.93z"/>
   <path class="fil0" d="M90.78 272.78c10.3,-1.67 28.04,-4.52 31.1,-12.56 12.24,-32.13 -51.77,-7.7 -54.44,-5.25 -9.95,9.16 4.18,24.04 -2.88,33.5 -5.52,7.41 -23.96,4.37 -26.19,17.44 -0.88,5.15 6.01,27.79 7.72,34.09 6.31,23.3 20.37,14.3 23.3,10.7 6.56,-8.05 -1.56,-23.76 -3.14,-33.81 9.4,-6.77 13.87,-5.61 19.84,-15.33 6.04,-9.83 5.7,-16.49 4.69,-28.79z"/>
   <path class="fil0" d="M72.03 433.1c7,9.77 21.63,1.14 33.83,2.92 7.3,9.74 6.19,25.05 17.16,27.22 2.36,0.47 43.81,-5.84 48.7,-15.87 3.06,-6.28 0.56,-12.54 -3.44,-15.41 -7.65,-5.48 -23.7,1.61 -33.28,3.56 -12.91,-15.45 -5.86,-24.85 -43.41,-24.97 -4.87,-8.63 -4.14,-25.81 -12.86,-30.43 -12.8,-6.78 -20.63,5.31 -16.67,19.57 2.06,7.4 6.61,28.7 9.98,33.41z"/>
   <path class="fil0" d="M448.83 486.55c2.97,-3.8 32.39,-23.1 37.87,-25.47l-2.64 45.02c-15.98,-6.18 -17.46,-2.61 -24.73,9.09 -11.73,18.88 -41.61,48.06 -61.5,50.17 3.85,-0.43 18,-11.52 21.73,-14.32 4.05,-3.03 16.12,-14.66 19.1,-18.69 14.24,-19.26 28.75,-34.6 10.18,-45.81zm28.8 46.13c5.11,1.77 10.93,6.68 15.96,7.3 19.53,2.41 15.23,-26.58 16.63,-50.85 0.81,-14.14 1.53,-28.24 2.5,-42.44 0.47,-6.87 1.52,-14.5 -2.65,-19.01 -3.17,-3.43 -9.25,-5.18 -14.97,-2.79l-53.09 35.17c-6.24,4.12 -23.21,14.23 -26.82,17.99 -11.28,11.76 4.48,21.66 12.88,24.79 -3.2,9.25 -16.44,22.39 -22.48,27.24 -8.89,7.16 -17.85,13.31 -30.54,18.46 -51.02,20.73 -107.75,1.89 -137.62,-42.84 -3.2,-4.78 -6,-11.89 -11.28,-13.98 -7.74,-3.07 -30.39,-0.78 -3.38,39.82 62.65,94.16 198.82,88.4 254.86,1.13z"/>
   <path class="fil0" d="M146.83 94.57c6.04,0.27 7.24,4.72 15.21,1.61 4.76,-1.86 6.41,-6.43 9.14,-10.57 14.46,-21.91 34.22,-42.2 61.54,-51 -13.65,6.04 -32.72,24.11 -40.96,33.76 -5.2,6.1 -10.67,14.58 -15.14,22.72 -7.19,13.11 -2.98,16.14 5.88,23.23l-38.2 24.61 2.53 -44.37zm6.61 -26.99c-3.7,-1.22 -23.48,-16.56 -29.44,0.29 -1.83,5.19 -4.82,71.04 -5.55,82.48 -2.88,45.5 22.76,21.67 43.05,8.19 9.58,-6.37 17.27,-11.69 26.75,-18 7.02,-4.67 21.58,-13.03 26.83,-18 12.33,-11.69 -2.69,-21.63 -12.16,-25.06 2.37,-7.89 15.84,-21.98 21.7,-26.98 8,-6.83 18.61,-13.5 30.58,-18.48 26.69,-11.09 55.49,-11.63 83.21,-1.55 46.64,16.96 56.91,52.09 64.87,57.04 6.8,4.22 14.27,0.38 16.91,-3.95 5.78,-9.5 -6.85,-27.25 -11.24,-34.03 -41.69,-64.29 -128.98,-91.41 -205.17,-49.3 -17.31,9.57 -42.72,31.84 -50.35,47.36z"/>
   <path class="fil0" d="M500.52 258.08c-5.2,14.2 -29.45,8.33 -23.36,-9.17 4.98,-14.31 29.02,-6.3 23.36,9.17zm-18.32 -41.19c-48.62,8.7 -35.96,82.35 13.2,73.85 48.06,-8.3 36.27,-82.71 -13.2,-73.85z"/>
   <g>
    <path class="fil0" d="M339.26 312.24l18 -5.19 7.94 27.55c-3.42,-0.97 -24.24,-20.58 -25.94,-22.36zm-61.95 -7.39l25.97 -7.48c2,1.56 9.11,7.53 10.55,9.53l-33.13 9.46 -3.39 -11.51zm40.21 -11.54l33.15 -9.45 3.31 11.24 -26.11 7.78c-2.93,-2.73 -8.02,-6.55 -10.35,-9.58zm-51.46 -27.76c1.34,0.39 0.28,-0.02 1.37,0.59l5.42 4.64c4.44,4.02 16.89,13.93 19.13,17.24l-18.07 5.05 -7.85 -27.53zm-17.23 47.19l16.73 -4.7 3.55 11.67 -16.36 4.87c-5.96,3.11 -3.87,10.58 1.3,11.32 3.22,0.46 13.92,-3.54 18.22,-4.41l12.69 44.3c1.43,5.1 3.04,9.63 8.63,7.96 5.13,-1.53 4.57,-5.89 3.18,-10.7 -3.98,-13.72 -9.6,-31.97 -12.79,-44.95l40.13 -11.58c2.43,-0.13 20.37,16.85 21.85,18.15 7.51,6.61 14.29,12.51 21.72,18.92 3.19,2.76 7.47,8.48 12.86,4.95 4.77,-3.13 1.06,-10.6 -0.74,-16.89 -2.33,-8.15 -10.07,-31.24 -10.56,-38.01 3.81,-1.38 15.07,-3.77 17.5,-5.65 4.36,-3.37 1.73,-10.94 -4.77,-10.37l-16.35 4.62 -3.43 -11.7 16.84 -5c5.03,-3.29 3.54,-10.31 -1.48,-11.18 -3.58,-0.62 -13.83,3.44 -18.33,4.38 -4.35,-9.07 -11.81,-44.35 -14.63,-49.52 -2.38,-4.37 -9.11,-4.22 -10.67,1.1 -1.02,7.92 12.49,40.75 13.54,51.83 -4,2.46 -32.88,9.82 -39.67,11.75 -2.75,0.33 -0.91,0.24 -1.98,-0.68l-42.64 -36.96c-2.89,-2.55 -7.6,-8.56 -12.83,-4.27 -4.08,3.34 -0.53,10.71 1.12,16.48 2.37,8.29 10.04,31.1 10.57,38.06 -4,1.4 -14.88,3.59 -17.5,5.68 -4.11,3.28 -1.89,10.42 4.31,10.51z"/>
    <path class="fil1" d="M338.44 309.37l20.86 -6.02 10.26 35.59 -5.17 -1.46c-1.71,-0.48 -5.6,-3.51 -9.94,-7.24 -7.25,-6.25 -16.27,-14.78 -17.36,-15.93l-3.39 -3.56 4.74 -1.37zm16.78 1.37l-10.16 2.93c3.46,3.25 8.73,8.1 13.3,12.04l1.55 1.33 -4.7 -16.3zm-78.73 -8.77l27.43 -7.9 1.2 0.93c1.2,0.94 4.33,3.55 7.01,5.96 1.8,1.61 3.41,3.19 4.13,4.19l2.49 3.46 -40.08 11.44 -5.07 -17.25 2.9 -0.84zm26.13 -1.29l-21.59 6.22 1.7 5.76 25.4 -7.25c-1.85,-1.69 -4.03,-3.53 -5.51,-4.74zm14.09 -10.25l36 -10.26 5 16.96 -30.61 9.13 -1.25 -1.17c-0.94,-0.88 -2.08,-1.84 -3.26,-2.85 -2.68,-2.28 -5.65,-4.8 -7.42,-7.1l-2.7 -3.5 4.25 -1.21zm31.94 -2.87l-25.49 7.26 5.47 4.72 21.65 -6.45 -1.63 -5.53zm-81.8 -24.9c0.68,0.19 1.33,0.41 1.92,0.81 0.01,0 -0.05,-0.04 0.14,0.07l0.48 0.34 5.48 4.7c1.22,1.11 3.35,2.9 5.68,4.87 5.45,4.61 12.15,10.28 13.93,12.91l2.32 3.44 -24.95 6.97 -10.12 -35.49 5.12 1.39zm9.83 15.35l-5.22 -4.46 4.52 15.85 10.44 -2.92c-2.65,-2.46 -6.44,-5.67 -9.75,-8.46zm-28.19 31.72l19.09 -5.36 5.28 17.35 -18.91 5.62c-0.81,0.46 -1.33,1.04 -1.58,1.63 -0.22,0.52 -0.28,1.09 -0.19,1.61 0.09,0.54 0.36,1.07 0.73,1.49 0.39,0.44 0.94,0.76 1.57,0.85 1.45,0.19 6.31,-1.27 10.59,-2.55 2.54,-0.76 4.9,-1.47 6.63,-1.82l2.7 -0.54 13.45 46.95c0.62,2.23 1.27,4.32 2.19,5.44 0.51,0.62 1.32,0.88 2.7,0.47 1.26,-0.37 1.81,-1 1.94,-1.75 0.23,-1.34 -0.19,-3.23 -0.77,-5.24l-3.31 -11.25c-3.39,-11.5 -7.13,-24.13 -9.51,-33.81l-0.69 -2.78 42.9 -12.39 0.67 -0.12c3.33,-0.18 17.51,12.93 22.49,17.53 7.56,6.89 15.46,13.57 23.19,20.27l1.7 1.57c2.21,2.12 5.01,4.8 7.56,3.13 2,-1.31 0.55,-5.72 -0.86,-10.02l-1.11 -3.54c-0.67,-2.35 -1.62,-5.4 -2.7,-8.88 -3.21,-10.35 -7.59,-24.43 -7.97,-29.74l-0.17 -2.25 2.13 -0.78c1.5,-0.54 3.76,-1.15 6.24,-1.82 4.31,-1.16 9.35,-2.53 10.46,-3.38 0.53,-0.41 0.83,-0.96 0.93,-1.53 0.09,-0.53 0.03,-1.09 -0.17,-1.59 -0.2,-0.51 -0.55,-0.98 -1.01,-1.32 -0.54,-0.4 -1.29,-0.63 -2.22,-0.59l-18.88 5.33 -5.1 -17.4 19.21 -5.7c0.82,-0.63 1.27,-1.43 1.41,-2.21 0.07,-0.42 0.07,-0.83 -0.01,-1.21 -0.07,-0.36 -0.22,-0.71 -0.42,-1.02 -0.35,-0.53 -0.91,-0.94 -1.62,-1.06 -1.68,-0.29 -6.6,1.23 -10.88,2.56 -2.43,0.75 -4.7,1.45 -6.33,1.8l-2.29 0.48 -1.02 -2.12c-2.46,-5.13 -5.74,-17.72 -8.7,-29.11 -2.47,-9.52 -4.74,-18.19 -5.86,-20.26 -0.39,-0.73 -1.05,-1.21 -1.75,-1.42 -0.37,-0.11 -0.76,-0.14 -1.13,-0.11 -0.34,0.03 -0.7,0.14 -1,0.31 -0.52,0.28 -0.96,0.79 -1.22,1.52 -0.28,3.89 3.27,14.99 6.79,25.96 3.15,9.83 6.28,19.58 6.78,24.96l0.17 1.85 -1.58 0.97c-3.52,2.17 -22.15,7.16 -33.39,10.18 -2.64,0.72 -5.63,1.78 -8.32,2.11 -0.99,0.11 -1.4,0.16 -2.11,-0.09 -1.54,-0.56 -2.05,-1.23 -2.12,-2.07 -14.17,-12.29 -29.72,-24.81 -43.26,-37.59 -2.11,-2.03 -5.14,-4.94 -7.59,-2.93 -1.76,1.45 -0.3,5.91 1.05,10.02l1.05 3.33c0.64,2.23 1.61,5.35 2.71,8.9 3.21,10.35 7.55,24.31 7.97,29.75l0.17 2.29 -2.18 0.76c-1.45,0.5 -3.57,1.07 -5.89,1.68 -4.33,1.15 -9.47,2.52 -10.73,3.52 -0.46,0.37 -0.75,0.84 -0.87,1.33 -0.14,0.55 -0.1,1.14 0.09,1.68 0.19,0.56 0.56,1.07 1.05,1.45 0.47,0.36 1.09,0.61 1.84,0.69zm15.08 1.98l-13.92 3.91 -0.84 0.11c-2.31,-0.03 -4.27,-0.78 -5.78,-1.93 -1.45,-1.11 -2.5,-2.61 -3.06,-4.24 -0.57,-1.65 -0.68,-3.44 -0.25,-5.12 0.43,-1.71 1.41,-3.32 2.96,-4.55 2.24,-1.78 8.04,-3.33 12.94,-4.62l3.1 -0.83c-1.13,-6 -4.67,-17.37 -7.37,-26.08 -1.15,-3.69 -2.16,-6.93 -2.76,-9.04l-0.98 -3.12c-1.96,-5.99 -4.09,-12.46 0.85,-16.5 6.59,-5.38 11.85,-0.31 15.54,3.24l1.19 1.11 42.46 36.82 6.47 -1.75c9.57,-2.57 24.65,-6.61 30.09,-8.71 -0.93,-5.11 -3.57,-13.34 -6.23,-21.63 -3.8,-11.84 -7.63,-23.84 -7,-28.79l0.09 -0.47c0.74,-2.51 2.29,-4.28 4.18,-5.3 1.02,-0.56 2.16,-0.9 3.3,-1.01 1.13,-0.11 2.28,0 3.37,0.32 2.15,0.63 4.11,2.08 5.32,4.3 1.47,2.71 3.83,11.72 6.4,21.62 2.5,9.64 5.24,20.15 7.36,25.78l3.43 -1.04c4.93,-1.53 10.59,-3.27 13.65,-2.75 2.48,0.43 4.41,1.83 5.63,3.69 0.61,0.95 1.04,2.01 1.26,3.13 0.22,1.11 0.25,2.27 0.06,3.39 -0.42,2.41 -1.8,4.78 -4.33,6.43l-0.8 0.36 -13.97 4.15 1.76 5.99 13.51 -3.81 0.55 -0.11c2.6,-0.23 4.81,0.49 6.52,1.75 1.37,1.02 2.4,2.4 3,3.92 0.6,1.52 0.8,3.2 0.52,4.8 -0.34,1.97 -1.37,3.86 -3.19,5.26 -2.07,1.6 -7.73,3.13 -12.57,4.44l-3.44 0.94c1.12,5.93 4.67,17.38 7.38,26.1l3.79 12.32c2.12,6.44 4.29,13.06 -1.55,16.89 -6.52,4.28 -11.25,-0.25 -14.99,-3.83l-1.46 -1.37c-7.78,-6.74 -15.76,-13.44 -23.33,-20.39 -4.33,-4.02 -16.43,-15.2 -18.01,-15.92l-36.8 10.63c2.35,9.18 5.69,20.44 8.74,30.78l3.31 11.27c0.81,2.78 1.36,5.5 0.94,7.93 -0.52,3 -2.27,5.32 -6.13,6.47 -4.21,1.26 -7,0.08 -9.05,-2.42 -1.63,-1.99 -2.51,-4.74 -3.31,-7.6l-11.89 -41.5 -3.43 1.02c-4.87,1.46 -10.4,3.13 -13.13,2.74 -2.13,-0.3 -3.92,-1.34 -5.22,-2.8 -1.09,-1.22 -1.84,-2.78 -2.13,-4.42 -0.3,-1.66 -0.13,-3.43 0.58,-5.06 0.8,-1.83 2.26,-3.5 4.5,-4.67l0.54 -0.21 13.47 -4.01 -1.82 -5.98z"/>
   </g>
  </g>
 </g>
</svg>
