<?xml version="1.0" encoding="UTF-8"?>
<!DOCTYPE svg PUBLIC "-//W3C//DTD SVG 1.1//EN" "http://www.w3.org/Graphics/SVG/1.1/DTD/svg11.dtd">
<!-- Creator: CorelDRAW 2021 (64-Bit) -->
<svg xmlns="http://www.w3.org/2000/svg" xml:space="preserve" width="1in" height="1in" version="1.1" style="shape-rendering:geometricPrecision; text-rendering:geometricPrecision; image-rendering:optimizeQuality; fill-rule:evenodd; clip-rule:evenodd"
viewBox="0 0 1000 1000"
 xmlns:xlink="http://www.w3.org/1999/xlink"
 xmlns:xodm="http://www.corel.com/coreldraw/odm/2003">
 <defs>
  <style type="text/css">
   <![CDATA[
    .fil0 {fill:white;fill-rule:nonzero}
   ]]>
  </style>
 </defs>
 <g id="Layer_x0020_1">
  <metadata id="CorelCorpID_0Corel-Layer"/>
  <g id="_1245883186464">
   <path class="fil0" d="M354.96 485.5c0,41.85 14.29,48.48 51.64,48.33 8.71,-0.03 12.91,1.16 20.84,1.13l68.14 1.07c-2.34,4.43 -3.81,8.75 -6.23,13.55 -6.47,12.82 -12.01,28.31 -19.05,42.47l-37.81 85.22c-7.81,18.76 -35.78,76.82 -35.78,90.55 0,19.09 20.41,58.15 58.4,6.77l29.27 -48.72c24.26,-38.45 51.07,-83.79 75.57,-121.07 5.48,-8.35 9.94,-15.79 15.19,-24.35 2.67,-4.36 4.85,-7.82 7.67,-12.11l37.11 -60.65c8.76,-14.5 25.06,-36.49 25.06,-54.04 0,-14.7 2.01,-24.33 -16.15,-27.8 -13.37,-2.55 -63.14,-3.01 -80.55,-2.94 -7.28,0.03 -9.45,-1.12 -16.45,-1.12l75.43 -145.37c10,-20.01 22.33,-38.39 22.33,-57.86 0,-4.52 -3.55,-9.11 -5.62,-11.96 -3.65,-5.03 -3.24,-5.76 -11.9,-5.67l-90.18 0.1c-7.15,-0.09 -9.19,-1.92 -17.06,-0.69 -47.32,7.4 -50.47,-19.07 -78.88,66.14 -3.2,9.58 -5.87,17.61 -9.06,27.19l-45.87 135.39c-3.5,10.51 -16.06,47.54 -16.06,56.44z"/>
  </g>
 </g>
</svg>
