<?xml version="1.0" encoding="UTF-8"?>
<!DOCTYPE svg PUBLIC "-//W3C//DTD SVG 1.1//EN" "http://www.w3.org/Graphics/SVG/1.1/DTD/svg11.dtd">
<!-- Creator: CorelDRAW 2021 (64-Bit) -->
<svg xmlns="http://www.w3.org/2000/svg" xml:space="preserve" width="1in" height="1in" version="1.1" style="shape-rendering:geometricPrecision; text-rendering:geometricPrecision; image-rendering:optimizeQuality; fill-rule:evenodd; clip-rule:evenodd"
viewBox="0 0 1000 1000"
 xmlns:xlink="http://www.w3.org/1999/xlink"
 xmlns:xodm="http://www.corel.com/coreldraw/odm/2003">
 <defs>
  <style type="text/css">
   <![CDATA[
    .fil0 {fill:white;fill-rule:nonzero}
   ]]>
  </style>
 </defs>
 <g id="Layer_x0020_1">
  <metadata id="CorelCorpID_0Corel-Layer"/>
  <g id="_1282037310688">
   <path class="fil0" d="M741.11 202.33c-23.83,4.76 -39.67,23.68 -40.42,51.58 -0.82,30.41 -0.02,62.03 -0.02,92.58l0 370.13c0,39.69 -0.86,82.5 55.72,82.63 12.33,0.03 34.9,1.19 45.99,-1.2 23.09,-4.96 38.83,-24.62 39.47,-51.51 0.72,-30.5 0,-61.95 0,-92.56l0 -370.13c0,-33.44 2.14,-55.28 -19.98,-72.59 -15.64,-12.24 -58.13,-13.44 -80.76,-8.93z"/>
   <path class="fil0" d="M559.06 330.59c-50.44,12.48 -40.03,61.47 -40.03,112.71 0,50.78 0,101.55 0,152.32 0,50.21 -1.33,102.2 0.02,152.19 0.64,23.75 13.01,39.57 29.7,46.94 13.3,5.87 55.67,6.74 71.52,3.33 51.18,-10.98 39.9,-68.31 39.9,-112.78 0,-50.78 0,-101.55 0,-152.32 0,-50.06 1.56,-102.61 -0.02,-152.35 -0.76,-23.67 -13.62,-40.5 -30.07,-47.3 -12.97,-5.36 -56.55,-6.32 -71.02,-2.74z"/>
   <path class="fil0" d="M376.96 458.75c-44.37,10.96 -39.69,48.87 -39.69,81.35 0,40.33 0,80.67 0,121 0,28.56 -4.66,94.36 7.45,114.17 6.43,10.52 19.19,21.21 35.98,23.42 10.32,1.36 50.75,1.24 59.67,-0.95 15.09,-3.7 27.44,-14.76 32.97,-26.81 7.38,-16.09 5.28,-35.73 5.28,-54.31 0,-40.33 0,-80.67 0,-121 0,-29.9 4.84,-91.25 -7.13,-113.69 -5.67,-10.63 -19.95,-21.8 -35.6,-24.04 -11.43,-1.64 -48.71,-1.67 -58.93,0.85z"/>
   <path class="fil0" d="M197.63 586.91c-22.75,6.06 -37.38,21.69 -39.01,48.5 -1.66,27.17 -0.18,59.2 -0.18,86.91 0,39.58 4.01,76.4 54.12,76.94 11.72,0.13 32.52,0.99 42.73,-1.55 21.5,-5.35 37.11,-22.96 38.51,-48.28 1.52,-27.43 0.13,-59.02 0.13,-86.9 0,-34.88 1.66,-49.08 -20.07,-66.98 -14.38,-11.85 -54.45,-14.44 -76.23,-8.63z"/>
  </g>
 </g>
</svg>
